
<svg width="20px" height="24px" viewBox="0 0 20 24" version="1.1" xmlns="http://www.w3.org/2000/svg" xmlns:xlink="http://www.w3.org/1999/xlink">
    <g id="Welcome" stroke="none" stroke-width="1" fill="none" fill-rule="evenodd">
        <g id="Home-Copy" transform="translate(-571.000000, -80.000000)" stroke="#000000">
            <g id="Group-2" transform="translate(571.000000, 81.000000)">
                <path d="M2.95920364,6.5 C2.70647644,6.5 2.49348539,6.68858782 2.46288283,6.93945535 L0.633079038,21.9394554 C0.630628505,21.9595438 0.629399848,21.9797626 0.629399848,22 C0.629399848,22.2761424 0.853257473,22.5 1.12939985,22.5 L18.8765748,22.5 C18.8959336,22.5 18.9152761,22.4988757 18.9345046,22.4966328 C19.2087873,22.464639 19.4052013,22.2163529 19.3732076,21.9420702 L17.6235303,6.94207019 C17.594133,6.69004728 17.3806291,6.5 17.1268975,6.5 L2.95920364,6.5 Z" id="Rectangle"></path>
                <circle id="Oval" fill-opacity="0" fill="#D8D8D8" cx="6" cy="10" r="1"></circle>
                <circle id="Oval" fill-opacity="0" fill="#D8D8D8" cx="14" cy="10" r="1"></circle>
                <path d="M6,8.92712905 L6,4.00236899 C6,1.80212512 7.78365008,0.0184750457 9.98389395,0.0184750457 L9.98389395,0.0184750457 C12.1841378,0.0184750457 13.9677879,1.80212512 13.9677879,4.00236899 L13.9677879,8.92712905" id="Path-5" stroke-linecap="round" stroke-linejoin="round"></path>
            </g>
        </g>
    </g>
</svg>